<?xml version="1.0" encoding="UTF-8"?>
<svg xmlns="http://www.w3.org/2000/svg" xmlns:xlink="http://www.w3.org/1999/xlink" width="24px" height="24px" viewBox="0 0 24 24" version="1.1">
<g id="surface1">
<path style=" stroke:none;fill-rule:nonzero;fill:rgb(0%,0%,0%);fill-opacity:1;" d="M 7.199219 12 C 9.519531 12 11.398438 10.121094 11.398438 7.800781 C 11.398438 5.480469 9.519531 3.601562 7.199219 3.601562 C 4.878906 3.601562 3 5.480469 3 7.800781 C 3 10.121094 4.878906 12 7.199219 12 Z M 10.078125 13.199219 L 9.769531 13.199219 C 8.988281 13.574219 8.121094 13.800781 7.199219 13.800781 C 6.277344 13.800781 5.414062 13.574219 4.632812 13.199219 L 4.320312 13.199219 C 1.933594 13.199219 0 15.136719 0 17.519531 L 0 18.601562 C 0 19.59375 0.804688 20.398438 1.800781 20.398438 L 12.601562 20.398438 C 13.59375 20.398438 14.398438 19.59375 14.398438 18.601562 L 14.398438 17.519531 C 14.398438 15.136719 12.464844 13.199219 10.078125 13.199219 Z M 18 12 C 19.988281 12 21.601562 10.386719 21.601562 8.398438 C 21.601562 6.414062 19.988281 4.800781 18 4.800781 C 16.011719 4.800781 14.398438 6.414062 14.398438 8.398438 C 14.398438 10.386719 16.011719 12 18 12 Z M 19.800781 13.199219 L 19.65625 13.199219 C 19.136719 13.378906 18.585938 13.5 18 13.5 C 17.414062 13.5 16.863281 13.378906 16.34375 13.199219 L 16.199219 13.199219 C 15.433594 13.199219 14.730469 13.421875 14.109375 13.777344 C 15.027344 14.765625 15.601562 16.074219 15.601562 17.519531 L 15.601562 18.960938 C 15.601562 19.042969 15.582031 19.121094 15.578125 19.199219 L 22.199219 19.199219 C 23.195312 19.199219 24 18.394531 24 17.398438 C 24 15.078125 22.121094 13.199219 19.800781 13.199219 Z M 19.800781 13.199219 "/>
</g>
</svg>
