<?xml version="1.0" encoding="UTF-8"?>
<svg xmlns="http://www.w3.org/2000/svg" xmlns:xlink="http://www.w3.org/1999/xlink" width="24px" height="24px" viewBox="0 0 24 24" version="1.1">
<g id="surface1">
<path style=" stroke:none;fill-rule:nonzero;fill:rgb(5.882353%,5.882353%,5.882353%);fill-opacity:1;" d="M 7.683594 0.0507812 C 8.207031 -0.125 8.773438 0.160156 8.949219 0.683594 L 9.949219 3.683594 C 10.125 4.207031 9.839844 4.773438 9.316406 4.949219 C 8.792969 5.125 8.226562 4.839844 8.050781 4.316406 L 7.050781 1.316406 C 6.875 0.792969 7.160156 0.226562 7.683594 0.0507812 Z M 7.683594 0.0507812 "/>
<path style=" stroke:none;fill-rule:nonzero;fill:rgb(5.882353%,5.882353%,5.882353%);fill-opacity:1;" d="M 20.859375 9.546875 L 16.96875 13.433594 C 16.578125 13.824219 15.945312 13.824219 15.554688 13.433594 C 15.164062 13.042969 15.164062 12.410156 15.554688 12.019531 L 19.445312 8.132812 C 20.421875 7.15625 20.421875 5.574219 19.445312 4.597656 C 18.46875 3.621094 16.886719 3.621094 15.910156 4.597656 L 12.019531 8.484375 C 11.628906 8.875 10.996094 8.875 10.605469 8.484375 C 10.214844 8.09375 10.214844 7.460938 10.605469 7.070312 L 14.496094 3.183594 C 16.253906 1.425781 19.101562 1.425781 20.859375 3.183594 C 22.617188 4.9375 22.617188 7.789062 20.859375 9.546875 Z M 20.859375 9.546875 "/>
<path style=" stroke:none;fill-rule:nonzero;fill:rgb(5.882353%,5.882353%,5.882353%);fill-opacity:1;" d="M 3.183594 14.496094 L 7.070312 10.605469 C 7.460938 10.214844 8.09375 10.214844 8.484375 10.605469 C 8.875 10.996094 8.875 11.628906 8.484375 12.019531 L 4.597656 15.910156 C 3.621094 16.886719 3.621094 18.46875 4.597656 19.445312 C 5.574219 20.421875 7.15625 20.421875 8.132812 19.445312 L 12.019531 15.554688 C 12.410156 15.164062 13.042969 15.164062 13.433594 15.554688 C 13.824219 15.945312 13.824219 16.578125 13.433594 16.96875 L 9.546875 20.859375 C 7.789062 22.617188 4.9375 22.617188 3.183594 20.859375 C 1.425781 19.101562 1.425781 16.253906 3.183594 14.496094 Z M 3.183594 14.496094 "/>
<path style=" stroke:none;fill-rule:nonzero;fill:rgb(5.882353%,5.882353%,5.882353%);fill-opacity:1;" d="M 2.292969 2.292969 C 2.683594 1.902344 3.316406 1.902344 3.707031 2.292969 L 6.707031 5.292969 C 7.097656 5.683594 7.097656 6.316406 6.707031 6.707031 C 6.316406 7.097656 5.683594 7.097656 5.292969 6.707031 L 2.292969 3.707031 C 1.902344 3.316406 1.902344 2.683594 2.292969 2.292969 Z M 2.292969 2.292969 "/>
<path style=" stroke:none;fill-rule:nonzero;fill:rgb(5.882353%,5.882353%,5.882353%);fill-opacity:1;" d="M 20.292969 21.707031 C 20.683594 22.097656 21.316406 22.097656 21.707031 21.707031 C 22.097656 21.316406 22.097656 20.683594 21.707031 20.292969 L 18.707031 17.292969 C 18.316406 16.902344 17.683594 16.902344 17.292969 17.292969 C 16.902344 17.683594 16.902344 18.316406 17.292969 18.707031 Z M 20.292969 21.707031 "/>
<path style=" stroke:none;fill-rule:nonzero;fill:rgb(5.882353%,5.882353%,5.882353%);fill-opacity:1;" d="M 15.050781 23.316406 C 15.226562 23.839844 15.792969 24.125 16.316406 23.949219 C 16.839844 23.773438 17.125 23.207031 16.949219 22.683594 L 15.949219 19.683594 C 15.773438 19.160156 15.207031 18.875 14.683594 19.050781 C 14.160156 19.226562 13.875 19.792969 14.050781 20.316406 Z M 15.050781 23.316406 "/>
<path style=" stroke:none;fill-rule:nonzero;fill:rgb(5.882353%,5.882353%,5.882353%);fill-opacity:1;" d="M 0.0507812 7.683594 C -0.125 8.207031 0.160156 8.773438 0.683594 8.949219 L 3.683594 9.949219 C 4.207031 10.125 4.773438 9.839844 4.949219 9.316406 C 5.125 8.792969 4.839844 8.226562 4.316406 8.050781 L 1.316406 7.050781 C 0.792969 6.875 0.226562 7.160156 0.0507812 7.683594 Z M 0.0507812 7.683594 "/>
<path style=" stroke:none;fill-rule:nonzero;fill:rgb(5.882353%,5.882353%,5.882353%);fill-opacity:1;" d="M 23.316406 15.050781 C 23.839844 15.226562 24.125 15.792969 23.949219 16.316406 C 23.773438 16.839844 23.207031 17.125 22.683594 16.949219 L 19.683594 15.949219 C 19.160156 15.773438 18.875 15.207031 19.050781 14.683594 C 19.226562 14.160156 19.792969 13.875 20.316406 14.050781 Z M 23.316406 15.050781 "/>
</g>
</svg>
